<svg xmlns="http://www.w3.org/2000/svg" xmlns:xlink="http://www.w3.org/1999/xlink" width="32" zoomAndPan="magnify" viewBox="0 0 24.75 24.75" height="33" preserveAspectRatio="xMidYMid meet" version="1.0"><defs><clipPath id="045b69f162"><path d="M 0 0 L 24.503906 0 L 24.503906 24.503906 L 0 24.503906 Z M 0 0 " clip-rule="nonzero"/></clipPath><clipPath id="73c9d247a3"><path d="M 0 0 L 23.761719 0 L 23.761719 23.761719 L 0 23.761719 Z M 0 0 " clip-rule="nonzero"/></clipPath><clipPath id="9a0a5c1bed"><path d="M 0 0 L 23.761719 0 L 23.761719 23.761719 L 0 23.761719 Z M 0 0 " clip-rule="nonzero"/></clipPath></defs><g clip-path="url(#045b69f162)"><path fill="#ffffff" d="M 0 0 L 24.503906 0 L 24.503906 24.503906 L 0 24.503906 Z M 0 0 " fill-opacity="1" fill-rule="nonzero"/></g><g clip-path="url(#73c9d247a3)"><path fill="#343d48" d="M 5.449219 0 L 18.519531 0 C 18.878906 0 19.234375 0.0351562 19.585938 0.105469 C 19.933594 0.175781 20.277344 0.277344 20.605469 0.414062 C 20.9375 0.550781 21.25 0.71875 21.546875 0.917969 C 21.84375 1.117188 22.121094 1.34375 22.375 1.59375 C 22.625 1.847656 22.851562 2.125 23.050781 2.421875 C 23.25 2.71875 23.417969 3.03125 23.554688 3.363281 C 23.691406 3.691406 23.792969 4.035156 23.863281 4.382812 C 23.933594 4.734375 23.96875 5.089844 23.96875 5.449219 L 23.96875 18.519531 C 23.96875 18.878906 23.933594 19.234375 23.863281 19.585938 C 23.792969 19.933594 23.691406 20.277344 23.554688 20.605469 C 23.417969 20.9375 23.25 21.25 23.050781 21.546875 C 22.851562 21.84375 22.625 22.121094 22.375 22.375 C 22.121094 22.625 21.84375 22.851562 21.546875 23.050781 C 21.25 23.25 20.9375 23.417969 20.605469 23.554688 C 20.277344 23.691406 19.933594 23.792969 19.585938 23.863281 C 19.234375 23.933594 18.878906 23.96875 18.519531 23.96875 L 5.449219 23.96875 C 5.089844 23.96875 4.734375 23.933594 4.382812 23.863281 C 4.035156 23.792969 3.691406 23.691406 3.363281 23.554688 C 3.03125 23.417969 2.71875 23.25 2.421875 23.050781 C 2.125 22.851562 1.847656 22.625 1.59375 22.375 C 1.34375 22.121094 1.117188 21.84375 0.917969 21.546875 C 0.71875 21.25 0.550781 20.9375 0.414062 20.605469 C 0.277344 20.277344 0.175781 19.933594 0.105469 19.585938 C 0.0351562 19.234375 0 18.878906 0 18.519531 L 0 5.449219 C 0 5.089844 0.0351562 4.734375 0.105469 4.382812 C 0.175781 4.035156 0.277344 3.691406 0.414062 3.363281 C 0.550781 3.03125 0.71875 2.71875 0.917969 2.421875 C 1.117188 2.125 1.34375 1.847656 1.59375 1.59375 C 1.847656 1.34375 2.125 1.117188 2.421875 0.917969 C 2.71875 0.71875 3.03125 0.550781 3.363281 0.414062 C 3.691406 0.277344 4.035156 0.175781 4.382812 0.105469 C 4.734375 0.0351562 5.089844 0 5.449219 0 Z M 5.449219 0 " fill-opacity="1" fill-rule="nonzero"/></g><path fill="#ffffff" d="M 12.296875 5.746094 L 13.65625 6.023438 L 11.066406 18.222656 L 9.707031 17.945312 L 12.296875 5.746094 M 17.246094 11.984375 L 14.757812 9.496094 L 14.757812 7.535156 L 19.207031 11.984375 L 14.757812 16.425781 L 14.757812 14.464844 L 17.246094 11.984375 M 4.765625 11.984375 L 9.214844 7.535156 L 9.214844 9.496094 L 6.722656 11.984375 L 9.210938 14.464844 L 9.210938 16.425781 Z M 4.765625 11.984375 " fill-opacity="1" fill-rule="nonzero"/><g clip-path="url(#9a0a5c1bed)"><path fill="#02073e" d="M 5.449219 0 L 18.519531 0 C 18.878906 0 19.234375 0.0351562 19.585938 0.105469 C 19.933594 0.175781 20.277344 0.277344 20.605469 0.414062 C 20.9375 0.550781 21.25 0.71875 21.546875 0.917969 C 21.84375 1.117188 22.121094 1.34375 22.375 1.59375 C 22.625 1.847656 22.851562 2.125 23.050781 2.421875 C 23.25 2.71875 23.417969 3.03125 23.554688 3.363281 C 23.691406 3.691406 23.792969 4.035156 23.863281 4.382812 C 23.933594 4.734375 23.96875 5.089844 23.96875 5.449219 L 23.96875 18.519531 C 23.96875 18.878906 23.933594 19.234375 23.863281 19.585938 C 23.792969 19.933594 23.691406 20.277344 23.554688 20.605469 C 23.417969 20.9375 23.25 21.25 23.050781 21.546875 C 22.851562 21.84375 22.625 22.121094 22.375 22.375 C 22.121094 22.625 21.84375 22.851562 21.546875 23.050781 C 21.25 23.25 20.9375 23.417969 20.605469 23.554688 C 20.277344 23.691406 19.933594 23.792969 19.585938 23.863281 C 19.234375 23.933594 18.878906 23.96875 18.519531 23.96875 L 5.449219 23.96875 C 5.089844 23.96875 4.734375 23.933594 4.382812 23.863281 C 4.035156 23.792969 3.691406 23.691406 3.363281 23.554688 C 3.03125 23.417969 2.71875 23.25 2.421875 23.050781 C 2.125 22.851562 1.847656 22.625 1.59375 22.375 C 1.34375 22.121094 1.117188 21.84375 0.917969 21.546875 C 0.71875 21.25 0.550781 20.9375 0.414062 20.605469 C 0.277344 20.277344 0.175781 19.933594 0.105469 19.585938 C 0.0351562 19.234375 0 18.878906 0 18.519531 L 0 5.449219 C 0 5.089844 0.0351562 4.734375 0.105469 4.382812 C 0.175781 4.035156 0.277344 3.691406 0.414062 3.363281 C 0.550781 3.03125 0.71875 2.71875 0.917969 2.421875 C 1.117188 2.125 1.34375 1.847656 1.59375 1.59375 C 1.847656 1.34375 2.125 1.117188 2.421875 0.917969 C 2.71875 0.71875 3.03125 0.550781 3.363281 0.414062 C 3.691406 0.277344 4.035156 0.175781 4.382812 0.105469 C 4.734375 0.0351562 5.089844 0 5.449219 0 Z M 5.449219 0 " fill-opacity="1" fill-rule="nonzero"/></g><path fill="#ffffff" d="M 12.296875 5.746094 L 13.65625 6.023438 L 11.066406 18.222656 L 9.707031 17.945312 L 12.296875 5.746094 M 17.246094 11.984375 L 14.757812 9.496094 L 14.757812 7.535156 L 19.207031 11.984375 L 14.757812 16.425781 L 14.757812 14.464844 L 17.246094 11.984375 M 4.765625 11.984375 L 9.214844 7.535156 L 9.214844 9.496094 L 6.722656 11.984375 L 9.210938 14.464844 L 9.210938 16.425781 Z M 4.765625 11.984375 " fill-opacity="1" fill-rule="nonzero"/></svg>