<svg xmlns="http://www.w3.org/2000/svg" xmlns:xlink="http://www.w3.org/1999/xlink" width="169" zoomAndPan="magnify" viewBox="0 0 126.75 44.999999" height="60" preserveAspectRatio="xMidYMid meet" version="1.0"><defs><clipPath id="1655deb581"><path d="M 17 3 L 38 3 L 38 22 L 17 22 Z M 17 3 " clip-rule="nonzero"/></clipPath><clipPath id="9c40405774"><path d="M 26.765625 25.890625 L 15.054688 10.09375 L 28.625 0.03125 L 40.335938 15.828125 Z M 26.765625 25.890625 " clip-rule="nonzero"/></clipPath><clipPath id="af3a81cc6a"><path d="M 21.84375 5.070312 L 31.554688 3.984375 L 37.40625 11.878906 L 33.550781 20.859375 L 23.839844 21.941406 L 17.984375 14.046875 Z M 21.84375 5.070312 " clip-rule="nonzero"/></clipPath><clipPath id="c6f263a98d"><path d="M 19 22 L 39 22 L 39 41 L 19 41 Z M 19 22 " clip-rule="nonzero"/></clipPath><clipPath id="a6488e4c65"><path d="M 27.957031 44.351562 L 16.246094 28.558594 L 29.816406 18.496094 L 41.527344 34.292969 Z M 27.957031 44.351562 " clip-rule="nonzero"/></clipPath><clipPath id="0dee40023c"><path d="M 23.035156 23.53125 L 32.746094 22.449219 L 38.601562 30.34375 L 34.742188 39.324219 L 25.03125 40.40625 L 19.179688 32.511719 Z M 23.035156 23.53125 " clip-rule="nonzero"/></clipPath><clipPath id="1f456f6349"><path d="M 2 13 L 23 13 L 23 32 L 2 32 Z M 2 13 " clip-rule="nonzero"/></clipPath><clipPath id="20ac5d2a9b"><path d="M 11.703125 35.753906 L -0.0078125 19.957031 L 13.558594 9.898438 L 25.273438 25.691406 Z M 11.703125 35.753906 " clip-rule="nonzero"/></clipPath><clipPath id="6a14c329b4"><path d="M 6.78125 14.933594 L 16.492188 13.851562 L 22.34375 21.746094 L 18.488281 30.722656 L 8.777344 31.804688 L 2.921875 23.910156 Z M 6.78125 14.933594 " clip-rule="nonzero"/></clipPath><clipPath id="e3e90ecafe"><path d="M 24.691406 13.746094 L 126.492188 13.746094 L 126.492188 30.960938 L 24.691406 30.960938 Z M 24.691406 13.746094 " clip-rule="nonzero"/></clipPath><clipPath id="8cbc629280"><path d="M 29.105469 16.113281 L 38.835938 16.113281 L 38.835938 28.089844 L 29.105469 28.089844 Z M 29.105469 16.113281 " clip-rule="nonzero"/></clipPath><clipPath id="b1a6adbec5"><path d="M 41.53125 16.859375 L 49 16.859375 L 49 28.089844 L 41.53125 28.089844 Z M 41.53125 16.859375 " clip-rule="nonzero"/></clipPath></defs><g clip-path="url(#1655deb581)"><g clip-path="url(#9c40405774)"><g clip-path="url(#af3a81cc6a)"><path fill="#000000" d="M 26.765625 25.890625 L 15.054688 10.09375 L 28.625 0.03125 L 40.335938 15.828125 Z M 26.765625 25.890625 " fill-opacity="1" fill-rule="nonzero"/></g></g></g><g clip-path="url(#c6f263a98d)"><g clip-path="url(#a6488e4c65)"><g clip-path="url(#0dee40023c)"><path fill="#000000" d="M 27.957031 44.351562 L 16.246094 28.558594 L 29.816406 18.496094 L 41.527344 34.292969 Z M 27.957031 44.351562 " fill-opacity="1" fill-rule="nonzero"/></g></g></g><g clip-path="url(#1f456f6349)"><g clip-path="url(#20ac5d2a9b)"><g clip-path="url(#6a14c329b4)"><path fill="#000000" d="M 11.703125 35.753906 L -0.0078125 19.957031 L 13.558594 9.898438 L 25.273438 25.691406 Z M 11.703125 35.753906 " fill-opacity="1" fill-rule="nonzero"/></g></g></g><g clip-path="url(#e3e90ecafe)"><path fill="#ffffff" d="M 24.773438 13.75 L 126.402344 13.75 C 126.402344 19.492188 126.402344 25.234375 126.402344 30.976562 C 92.527344 30.976562 58.652344 30.976562 24.773438 30.976562 C 24.773438 25.234375 24.773438 19.492188 24.773438 13.75 " fill-opacity="1" fill-rule="nonzero"/></g><g clip-path="url(#8cbc629280)"><path fill="#000000" d="M 35.015625 23.210938 L 35.011719 23.761719 L 36.964844 23.78125 L 36.9375 26.921875 C 36.394531 27.261719 35.789062 27.453125 35.148438 27.449219 C 32.902344 27.429688 31.101562 25.023438 31.128906 22.066406 C 31.152344 19.113281 32.992188 16.738281 35.238281 16.757812 C 36.6875 16.769531 37.953125 17.777344 38.660156 19.289062 L 38.667969 18.539062 C 37.710938 17.097656 36.191406 16.160156 34.46875 16.144531 C 31.550781 16.121094 29.164062 18.765625 29.136719 22.050781 C 29.105469 25.335938 31.449219 28.019531 34.367188 28.046875 C 35.296875 28.054688 36.171875 27.789062 36.933594 27.324219 L 36.925781 28.066406 L 38.796875 28.085938 L 38.835938 23.246094 Z M 35.015625 23.210938 " fill-opacity="1" fill-rule="nonzero"/></g><g clip-path="url(#b1a6adbec5)"><path fill="#000000" d="M 47.535156 27.523438 C 46.996094 27.851562 46.394531 28.015625 45.792969 28.089844 L 45.792969 27.96875 C 46.410156 27.597656 47.929688 26.449219 46.785156 24.675781 C 46.046875 23.527344 44.605469 22.871094 43.433594 22.230469 C 42.320312 21.601562 41.539062 20.425781 41.585938 19.1875 C 41.617188 18.246094 42.398438 17.398438 43.300781 17.066406 C 43.554688 16.980469 43.808594 16.917969 44.066406 16.875 L 44.066406 16.964844 C 43.492188 17.203125 42.605469 17.828125 43.042969 19.304688 C 43.300781 20.183594 44.078125 20.738281 44.863281 21.167969 C 45.777344 21.660156 46.664062 22.125 47.414062 22.839844 C 49.007812 24.34375 48.855469 26.746094 47.535156 27.523438 Z M 42.15625 24.71875 C 42.035156 26.597656 42.953125 27.433594 43.972656 27.894531 L 43.972656 28.027344 C 42.683594 27.835938 41.707031 27.386719 41.707031 27.386719 L 41.945312 24.71875 Z M 47.746094 20.183594 C 47.761719 18.453125 46.84375 17.382812 45.882812 16.949219 L 45.882812 16.859375 C 47.175781 17.039062 48.183594 17.53125 48.183594 17.53125 L 47.957031 20.183594 Z M 47.746094 20.183594 " fill-opacity="1" fill-rule="nonzero"/></g></svg>